<svg id="Capa_1" enable-background="new 0 0 512 512" height="512" viewBox="0 0 512 512" width="512" xmlns="http://www.w3.org/2000/svg"><g><g><g><path d="m504.5 78.01v355.98c0 5.52-4.48 10-10 10h-477c-5.52 0-10-4.48-10-10v-355.98c0-5.52 4.48-10 10-10h477c5.52 0 10 4.48 10 10z" fill="#e8e6ed"/><path d="m353.27 408.89v35.1h-194.54v-35.1c0-5.523 4.477-10 10-10h174.54c5.523 0 10 4.477 10 10z" fill="#ffb800"/><path d="m353.27 408.89v35.1h-39.46c8.91-18.32 11.19-35.05 11.64-45.1h17.82c5.523 0 10 4.477 10 10z" fill="#ff9700"/><path d="m504.5 78.01v355.98c0 5.52-4.48 10-10 10h-119.78c110.64-95.77 108.18-318.45 105.57-375.98h14.21c5.52 0 10 4.48 10 10z" fill="#d1d0d8"/><path d="m504.5 78.01v53.03h-497v-53.03c0-5.52 4.48-10 10-10h477c5.52 0 10 4.48 10 10z" fill="#898993"/><path d="m504.5 78.01v53.03h-23.83c.82-27.46.23-49.69-.38-63.03h14.21c5.52 0 10 4.48 10 10z" fill="#717177"/></g><g><path d="m119.903 443.99h-62.663v-261.806c0-5.523 4.477-10 10-10h42.663c5.523 0 10 4.477 10 10z" fill="#7a48ff"/><path d="m454.76 443.99h-62.663v-261.806c0-5.523 4.477-10 10-10h42.663c5.523 0 10 4.477 10 10z" fill="#22d0ff"/><path d="m454.76 307.34v136.65h-62.66v-17.06c29.43-32.57 49.31-75.04 62.66-119.59z" fill="#06b9ff"/></g><path d="m353.27 182.18v86.11c0 5.523-4.477 10-10 10h-174.54c-5.523 0-10-4.477-10-10v-86.11c0-5.523 4.477-10 10-10h174.54c5.523 0 10 4.477 10 10z" fill="#ff5677"/><path d="m353.27 182.18v86.11c0 5.523-4.477 10-10 10h-72.81c40.12-34.69 50.91-81.97 53.8-106.11h19.01c5.523 0 10 4.477 10 10z" fill="#ff2953"/></g><g><path d="m504.5 349.311c4.142 0 7.5-3.357 7.5-7.5v-263.797c0-9.649-7.851-17.5-17.5-17.5h-477c-9.649 0-17.5 7.851-17.5 17.5v355.973c0 9.649 7.851 17.5 17.5 17.5h477c9.649 0 17.5-7.851 17.5-17.5v-57.653c0-4.143-3.358-7.5-7.5-7.5s-7.5 3.357-7.5 7.5v57.653c0 1.379-1.122 2.5-2.5 2.5h-32.24v-254.307c0-9.649-7.851-17.5-17.5-17.5h-42.66c-9.649 0-17.5 7.851-17.5 17.5v254.307h-23.83v-27.597c0-9.649-7.851-17.5-17.5-17.5h-174.54c-9.649 0-17.5 7.851-17.5 17.5v27.597h-23.827v-254.303c0-9.649-7.851-17.5-17.5-17.5h-42.663c-9.649 0-17.5 7.851-17.5 17.5v120.629c0 4.143 3.358 7.5 7.5 7.5s7.5-3.357 7.5-7.5v-120.629c0-1.379 1.122-2.5 2.5-2.5h42.663c1.378 0 2.5 1.121 2.5 2.5v254.303h-47.663v-99.151c0-4.143-3.358-7.5-7.5-7.5s-7.5 3.357-7.5 7.5v99.151h-32.24c-1.378 0-2.5-1.121-2.5-2.5v-295.447h482v203.271c0 4.142 3.358 7.5 7.5 7.5zm-104.9-167.131c0-1.379 1.122-2.5 2.5-2.5h42.66c1.378 0 2.5 1.121 2.5 2.5v254.307h-47.66zm-233.37 226.71c0-1.379 1.122-2.5 2.5-2.5h174.54c1.378 0 2.5 1.121 2.5 2.5v27.597h-179.54zm-151.23-285.35v-45.526c0-1.379 1.122-2.5 2.5-2.5h477c1.378 0 2.5 1.121 2.5 2.5v45.526z"/><path d="m47.611 92.027-.113-.001c-.022 0-.044 0-.066 0-4.111 0-7.462 3.315-7.498 7.436-.036 4.142 3.292 7.528 7.435 7.564l.113.001h.066c4.111 0 7.462-3.315 7.498-7.436.036-4.141-3.293-7.528-7.435-7.564z"/><path d="m70.254 92.027-.113-.001c-.022 0-.044 0-.066 0-4.111 0-7.462 3.315-7.498 7.436-.036 4.142 3.292 7.528 7.435 7.564l.113.001h.066c4.111 0 7.462-3.315 7.498-7.436.036-4.141-3.293-7.528-7.435-7.564z"/><path d="m92.897 92.027-.113-.001c-.022 0-.044 0-.066 0-4.111 0-7.462 3.315-7.498 7.436-.036 4.142 3.292 7.528 7.435 7.564l.113.001h.066c4.111 0 7.462-3.315 7.498-7.436.036-4.141-3.293-7.528-7.435-7.564z"/><path d="m464.567 92.026h-13.956c-4.142 0-7.5 3.357-7.5 7.5s3.358 7.5 7.5 7.5h13.956c4.142 0 7.5-3.357 7.5-7.5s-3.358-7.5-7.5-7.5z"/><path d="m353.267 304.345h-194.534c-4.142 0-7.5 3.357-7.5 7.5s3.358 7.5 7.5 7.5h194.534c4.142 0 7.5-3.357 7.5-7.5s-3.358-7.5-7.5-7.5z"/><path d="m353.267 331.589h-138.267c-4.142 0-7.5 3.357-7.5 7.5s3.358 7.5 7.5 7.5h138.267c4.142 0 7.5-3.357 7.5-7.5s-3.358-7.5-7.5-7.5z"/><path d="m158.733 346.589h32.267c4.142 0 7.5-3.357 7.5-7.5s-3.358-7.5-7.5-7.5h-32.267c-4.142 0-7.5 3.357-7.5 7.5s3.358 7.5 7.5 7.5z"/><path d="m158.733 373.833h194.534c4.142 0 7.5-3.357 7.5-7.5s-3.358-7.5-7.5-7.5h-194.534c-4.142 0-7.5 3.357-7.5 7.5s3.358 7.5 7.5 7.5z"/><path d="m360.77 182.18c0-9.649-7.851-17.5-17.5-17.5h-174.54c-9.649 0-17.5 7.851-17.5 17.5v86.11c0 9.649 7.851 17.5 17.5 17.5h111.624c4.142 0 7.5-3.357 7.5-7.5s-3.358-7.5-7.5-7.5h-111.624c-1.378 0-2.5-1.121-2.5-2.5v-86.11c0-1.379 1.122-2.5 2.5-2.5h174.54c1.378 0 2.5 1.121 2.5 2.5v86.11c0 1.379-1.122 2.5-2.5 2.5h-28.394c-4.142 0-7.5 3.357-7.5 7.5s3.358 7.5 7.5 7.5h28.394c9.649 0 17.5-7.851 17.5-17.5z"/></g></g></svg>